<svg
   version="1.1"
   id="svg1"
   width="1106.6667"
   height="360.81332"
   viewBox="0 0 1106.6667 360.81332"
   xmlns="http://www.w3.org/2000/svg"
   xmlns:svg="http://www.w3.org/2000/svg">
  <defs
     id="defs1" />
  <g
     id="g1">
    <g
       id="group-R5">
      <path
         id="path2"
         d="m 1070,1460.97 v 286.74 h 960 c 9.8,-50.54 15.53,-110.67 15.53,-175.8 0,-215.04 -58.87,-481.29 -248.32,-670.738 C 1612.87,709.16 1377.34,606.75 1065,606.75 486.426,606.75 0,1077.81 0,1656.4 c 0,578.58 486.426,1049.65 1065,1049.65 320.02,0 547.87,-125.45 719.39,-289.3 l -202.24,-202.24 c -122.89,115.19 -289.3,204.8 -517.15,204.8 -422.422,0 -752.676,-340.49 -752.676,-762.91 0,-422.42 330.254,-762.931 752.676,-762.931 273.95,0 430.1,110.101 529.94,209.941 81.35,81.34 134.94,198.02 155.73,357.56 H 1070"
         style="fill:#2297dc;fill-opacity:1;fill-rule:nonzero;stroke:none"
         transform="matrix(0.13333333,0,0,-0.13333333,0,360.81333)" />
      <path
         id="path3"
         d="m 3211.46,1282.61 c 0,243.23 -176.65,409.63 -381.45,409.63 -204.82,0 -381.47,-166.4 -381.47,-409.63 0,-240.64 176.65,-409.61 381.47,-409.61 204.8,0 381.45,168.97 381.45,409.61 z m 296.97,0 c 0,-389.141 -304.65,-675.86 -678.42,-675.86 -373.79,0 -678.44,286.719 -678.44,675.86 0,391.7 304.65,675.88 678.44,675.88 373.77,0 678.42,-284.18 678.42,-675.88"
         style="fill:#f03e22;fill-opacity:1;fill-rule:nonzero;stroke:none"
         transform="matrix(0.13333333,0,0,-0.13333333,0,360.81333)" />
      <path
         id="path4"
         d="m 4691.46,1282.61 c 0,243.23 -176.65,409.63 -381.45,409.63 -204.82,0 -381.47,-166.4 -381.47,-409.63 0,-240.64 176.65,-409.61 381.47,-409.61 204.8,0 381.45,168.97 381.45,409.61 z m 296.97,0 c 0,-389.141 -304.65,-675.86 -678.42,-675.86 -373.79,0 -678.44,286.719 -678.44,675.86 0,391.7 304.65,675.88 678.44,675.88 373.77,0 678.42,-284.18 678.42,-675.88"
         style="fill:#fab815;fill-opacity:1;fill-rule:nonzero;stroke:none"
         transform="matrix(0.13333333,0,0,-0.13333333,0,360.81333)" />
      <path
         id="path5"
         d="m 6145.87,1280.05 c 0,238.11 -158.73,412.19 -360.98,412.19 -204.82,0 -376.35,-174.08 -376.35,-412.19 0,-235.52 171.53,-407.05 376.35,-407.05 202.25,0 360.98,171.53 360.98,407.05 z M 6407,1917.54 V 704.039 C 6407,204.801 6112.59,0 5764.4,0 5436.71,0 5239.58,220.172 5165.34,399.371 l 258.58,107.539 c 46.07,-110.101 158.71,-240.66 340.48,-240.66 222.74,0 360.98,138.262 360.98,396.809 v 97.293 h -10.23 C 6048.58,678.43 5920.58,606.75 5759.29,606.75 c -337.95,0 -647.72,294.422 -647.72,673.3 0,381.47 309.77,678.44 647.72,678.44 161.29,0 289.29,-71.68 355.86,-151.05 h 10.23 v 110.1 H 6407"
         style="fill:#2297dc;fill-opacity:1;fill-rule:nonzero;stroke:none"
         transform="matrix(0.13333333,0,0,-0.13333333,0,360.81333)" />
      <path
         id="path6"
         d="M 6910,2627.71 V 647.711 H 6613.03 V 2627.71 H 6910"
         style="fill:#47bc49;fill-opacity:1;fill-rule:nonzero;stroke:none"
         transform="matrix(0.13333333,0,0,-0.13333333,0,360.81333)" />
      <path
         id="path7"
         d="m 7347.64,1303.1 604.18,250.9 c -33.28,84.47 -133.13,143.36 -250.88,143.36 -151.06,0 -360.98,-133.13 -353.3,-394.26 z M 8056.8,1059.9 8287.21,906.281 C 8212.95,796.211 8033.75,606.75 7723.96,606.75 c -384,0 -670.74,296.98 -670.74,675.86 0,401.96 289.3,675.88 637.46,675.88 350.75,0 522.27,-279.06 578.6,-430.1 L 8300,1451.6 7396.27,1077.81 C 7465.41,942.121 7572.93,873 7723.96,873 c 151.06,0 256.02,74.238 332.84,186.9"
         style="fill:#f03e22;fill-opacity:1;fill-rule:nonzero;stroke:none"
         transform="matrix(0.13333333,0,0,-0.13333333,0,360.81333)" />
    </g>
  </g>
</svg>
