<?xml version="1.0" encoding="UTF-8"?>
<svg xmlns="http://www.w3.org/2000/svg" width="256" height="77" viewBox="0 0 256 77" fill="none">
  <path d="M206.08 63.85H51.2l12.34 12.33 142.54-12.33ZM65.55 13.95v1.82a15.69 15.69 0 0 0-9-2.9c-10.85 0-19.09 9.9-19.09 22.05s8.24 22.05 19.09 22.05a15.69 15.69 0 0 0 9-2.9v1.86h9.54v-42l-9.54.02Zm-9 32.93c-5.35 0-9.27-5.26-9.27-11.92s3.92-11.92 9.27-11.92 9.13 5.27 9.13 11.92-3.76 11.92-9.12 11.92h-.01ZM141.96 13.95v24.68c0 4.64-3.19 8.55-7.82 8.55-4.63 0-7.81-3.91-7.81-8.55V13.95h-9.55v24.68c0 10.13 6.93 18.38 17.06 18.38a14.641 14.641 0 0 0 8.11-2.6v1.56h9.53v-42l-9.52-.02ZM230.83 55.97V31.28c0-4.63 3.18-8.54 7.82-8.54 4.64 0 7.81 3.91 7.81 8.54v24.69H256V31.28c0-10.13-6.93-18.37-17.06-18.37a14.641 14.641 0 0 0-8.11 2.6v-1.56h-9.54v42l9.54.02Z" fill="#8529CD"></path>
  <path d="M9.98 55.97V39.69h7l12.27 16.28h12.53L26.97 36.33A18.1 18.1 0 0 0 16.49 3.47H0v52.5h9.98Zm0-42.53h6.51a8.14 8.14 0 0 1 0 16.28H9.98V13.44ZM177.2 46.03a5.69 5.69 0 0 1-3.19 1c-1.56 0-4.49-1.19-4.49-5.15v-18h8.15v-10h-8.15V3.47h-9.54v10.48h-5v10h5v18.13c0 9.39 7.06 15 14.18 15a19.722 19.722 0 0 0 9.33-2.64l-6.29-8.41ZM98.8 33.64l16.36-19.7h-13.37L90.35 28.59V0h-9.83v55.97h9.83V38.71l14.06 17.26h13.37L98.8 33.64Z" fill="#8529CD"></path>
  <path d="M199.23 12.88c-11 0-19 9.7-19 22.08 0 13 9.94 22.08 19.91 22.08 5 0 11.48-1.72 16.89-9.41l-8.38-4.86c-6.52 9.6-17.38 4.73-18.63-4.87h27.48c2.35-15.13-7.41-25.02-18.27-25.02Zm8.33 16.65h-17.18c2.01-9.84 15.32-10.4 17.18 0Z" fill="#8529CD"></path>
</svg>
