<svg width="53" height="18" viewBox="0 0 53 18" fill="none" xmlns="http://www.w3.org/2000/svg">
<path d="M22.6682 0.887207H27.15V11.1689C27.15 12.9171 26.8661 14.233 26.2724 15.1396C25.111 16.9317 23.1418 17.9999 20.4865 17.9999C19.0152 17.9999 17.7598 17.7276 16.7395 17.1601C14.6762 16.0023 13.6803 14.4368 13.6803 11.1917V0.887207H18.1621V11.1232C18.1621 13.2122 18.8498 14.233 20.4378 14.233C22.0257 14.233 22.6665 13.5074 22.6665 11.1461V0.887207H22.6682Z" fill="white"/>
<path d="M33.897 5.06714H29.9602V17.6627H33.897V5.06714Z" fill="white"/>
<path d="M37.0172 17.8103V1.01733H42.9928C45.1745 1.01733 46.9052 1.38102 48.1397 2.03813C50.6296 3.39977 52.1949 5.98776 52.1949 9.41382C52.1949 14.9517 48.7805 17.8103 43.301 17.8103H37.0172ZM43.5152 14.0434C46.1008 14.0434 47.7114 12.5008 47.7114 9.43666C47.7114 6.37253 46.1234 4.78425 43.5378 4.78425H41.4989V14.0434H43.5152Z" fill="white"/>
<path d="M34.0955 2.07321C34.0955 3.21874 33.1257 4.14641 31.9295 4.14641C30.7333 4.14641 29.7635 3.21874 29.7635 2.07321C29.7635 0.927672 30.7333 0 31.9295 0C33.1257 0 34.0955 0.927672 34.0955 2.07321Z" fill="#E9F896"/>
<path d="M0 17.5907V0.794189H11.274V4.56286H4.96406V7.17369H11.0808V10.9406H4.96406V13.8238H11.2723V17.5907H0Z" fill="white"/>
</svg>
