<svg width="334" height="115" viewBox="0 0 334 115" fill="none" xmlns="http://www.w3.org/2000/svg">
<path d="M144.839 5.65918H173.475V71.3535C173.475 82.5234 171.662 90.9316 167.868 96.7242C160.448 108.175 147.865 115 130.899 115C121.499 115 113.477 113.26 106.958 109.634C93.7749 102.236 87.4114 92.2338 87.4114 71.4995V5.65918H116.047V71.0617C116.047 84.4093 120.442 90.9316 130.588 90.9316C140.734 90.9316 144.828 86.2953 144.828 71.2076V5.65918H144.839Z" fill="#231F20"/>
<path d="M216.582 32.3672H191.428V112.846H216.582V32.3672Z" fill="#231F20"/>
<path d="M236.516 113.786V6.48828H274.697C288.637 6.48828 299.695 8.81206 307.583 13.0106C323.492 21.7107 333.493 38.2465 333.493 60.1372C333.493 95.5214 311.677 113.786 276.667 113.786H236.516ZM278.035 89.7176C294.556 89.7176 304.846 79.8612 304.846 60.2831C304.846 40.705 294.7 30.5567 278.18 30.5567H265.152V89.7176H278.035Z" fill="#231F20"/>
<path d="M217.854 13.2466C217.854 20.566 211.658 26.4933 204.015 26.4933C196.372 26.4933 190.175 20.566 190.175 13.2466C190.175 5.92731 196.372 0 204.015 0C211.658 0 217.854 5.92731 217.854 13.2466Z" fill="#0000FF"/>
<path d="M0 112.395V5.0752H72.0349V29.1549H31.7176V45.8367H70.8V69.9051H31.7176V88.327H72.0238V112.395H0Z" fill="#231F20"/>
</svg>
